<svg width="41" height="35" viewBox="0 0 41 35" fill="none" xmlns="http://www.w3.org/2000/svg">
<g clip-path="url(#clip0_1_247)">
<path d="M31.0448 8.70228C28.9388 8.22748 26.8231 8.8264 25.2939 10.1322C24.875 9.19267 24.2429 8.36374 23.4477 7.71118C22.6525 7.05862 21.7162 6.60041 20.713 6.37291C17.141 5.5676 13.5882 7.82315 12.7776 11.4183C12.4655 12.8029 12.398 14.1326 12.5144 15.4059C13.0411 21.6378 17.923 26.3941 20.5119 27.9804C20.876 28.2092 21.5275 28.3561 21.9546 28.3056C24.9737 27.9838 31.4242 25.7824 34.5741 20.3794C35.2256 19.2792 35.7353 18.0492 36.0474 16.6647C36.858 13.0695 34.6167 9.50759 31.0448 8.70228Z" fill="#D9D9D9"/>
</g>
<path d="M19.18 3.74823C17.0683 3.74823 15.1783 4.81156 14 6.44281C13.3981 5.60763 12.6166 4.92924 11.7174 4.4615C10.8183 3.99376 9.82619 3.74954 8.81998 3.74823C5.23831 3.74823 2.33331 6.76906 2.33331 10.5028C2.33331 11.9407 2.55498 13.2699 2.93998 14.5024C4.78331 20.5441 10.465 24.157 13.2766 25.1478C13.6733 25.2928 14.3266 25.2928 14.7233 25.1478C17.535 24.157 23.2166 20.5441 25.06 14.5024C25.445 13.2699 25.6666 11.9407 25.6666 10.5028C25.6666 6.76906 22.7616 3.74823 19.18 3.74823Z" fill="#F70000"/>
<defs>
<clipPath id="clip0_1_247">
<rect width="28.6247" height="28.6247" fill="white" transform="translate(12.7307 0.78064) rotate(12.7053)"/>
</clipPath>
</defs>
</svg>
