<svg width="28" height="28" viewBox="0 0 28 28" fill="none" xmlns="http://www.w3.org/2000/svg">
<path d="M8.16665 21.5017H12.8333L18.025 24.955C18.2002 25.0718 18.4038 25.1389 18.6141 25.149C18.8245 25.1591 19.0336 25.112 19.2192 25.0126C19.4049 24.9132 19.56 24.7653 19.6682 24.5846C19.7763 24.4039 19.8334 24.1973 19.8333 23.9867V21.5017C23.3333 21.5017 25.6666 19.1684 25.6666 15.6684V8.66835C25.6666 5.16836 23.3333 2.83502 19.8333 2.83502H8.16665C4.66665 2.83502 2.33331 5.16836 2.33331 8.66835V15.6684C2.33331 19.1684 4.66665 21.5017 8.16665 21.5017Z" fill="#6B99F1"/>
<path d="M18.0834 13.125H9.91669C9.43835 13.125 9.04169 12.7283 9.04169 12.25C9.04169 11.7717 9.43835 11.375 9.91669 11.375H18.0834C18.5617 11.375 18.9584 11.7717 18.9584 12.25C18.9584 12.7283 18.5617 13.125 18.0834 13.125Z" fill="white"/>
</svg>
